<svg xmlns="http://www.w3.org/2000/svg" xmlns:xlink="http://www.w3.org/1999/xlink" width="200" zoomAndPan="magnify" viewBox="0 0 150 143.999998" height="192" preserveAspectRatio="xMidYMid meet" version="1.0"><path fill="#000000" d="M 12.484375 56.789062 C 11.464844 55.539062 11.652344 53.695312 12.90625 52.675781 L 41.617188 29.316406 C 42.21875 28.824219 42.988281 28.59375 43.761719 28.671875 C 44.535156 28.75 45.246094 29.132812 45.734375 29.734375 L 56.03125 42.355469 L 83.730469 19.816406 C 84.332031 19.324219 85.105469 19.09375 85.878906 19.171875 C 86.652344 19.25 87.359375 19.632812 87.851562 20.234375 L 98.148438 32.855469 L 130.363281 6.640625 L 124.359375 5.980469 C 122.753906 5.804688 121.59375 4.359375 121.769531 2.753906 C 121.945312 1.148438 123.390625 -0.0117188 125 0.167969 L 137.957031 1.585938 C 139.5625 1.761719 140.722656 3.207031 140.546875 4.8125 L 139.125 17.753906 C 138.960938 19.25 137.691406 20.359375 136.21875 20.359375 C 136.109375 20.359375 136.003906 20.351562 135.894531 20.339844 C 134.285156 20.164062 133.125 18.71875 133.300781 17.113281 L 133.945312 11.273438 L 99.574219 39.238281 C 98.320312 40.257812 96.476562 40.070312 95.457031 38.816406 L 85.160156 26.199219 L 57.460938 48.734375 C 56.859375 49.226562 56.085938 49.457031 55.3125 49.378906 C 54.539062 49.300781 53.832031 48.917969 53.339844 48.316406 L 43.046875 35.695312 L 16.605469 57.210938 C 16.0625 57.652344 15.410156 57.867188 14.757812 57.867188 C 13.910156 57.867188 13.066406 57.5 12.484375 56.789062 Z M 29.464844 80.890625 L 29.464844 141.070312 C 29.464844 142.6875 28.152344 143.996094 26.535156 143.996094 L 2.949219 143.996094 C 1.332031 143.996094 0.0195312 142.6875 0.0195312 141.070312 L 0.0195312 80.890625 C 0.0195312 79.277344 1.332031 77.96875 2.949219 77.96875 L 26.535156 77.96875 C 28.152344 77.96875 29.464844 79.277344 29.464844 80.890625 Z M 23.605469 83.816406 L 5.878906 83.816406 L 5.878906 138.148438 L 23.605469 138.148438 Z M 69.636719 66.851562 L 69.636719 141.070312 C 69.636719 142.6875 68.324219 143.996094 66.707031 143.996094 L 43.121094 143.996094 C 41.503906 143.996094 40.191406 142.6875 40.191406 141.070312 L 40.191406 66.851562 C 40.191406 65.238281 41.503906 63.925781 43.121094 63.925781 L 66.707031 63.925781 C 68.324219 63.925781 69.636719 65.238281 69.636719 66.851562 Z M 63.777344 69.777344 L 46.050781 69.777344 L 46.050781 138.148438 L 63.777344 138.148438 Z M 109.808594 53.472656 L 109.808594 141.070312 C 109.808594 142.6875 108.496094 143.996094 106.878906 143.996094 L 83.292969 143.996094 C 81.675781 143.996094 80.363281 142.6875 80.363281 141.070312 L 80.363281 53.472656 C 80.363281 51.859375 81.675781 50.546875 83.292969 50.546875 L 106.878906 50.546875 C 108.496094 50.546875 109.808594 51.859375 109.808594 53.472656 Z M 103.949219 56.398438 L 86.222656 56.398438 L 86.222656 138.148438 L 103.949219 138.148438 Z M 149.980469 34.96875 L 149.980469 141.070312 C 149.980469 142.6875 148.667969 143.996094 147.050781 143.996094 L 123.464844 143.996094 C 121.847656 143.996094 120.535156 142.6875 120.535156 141.070312 L 120.535156 34.96875 C 120.535156 33.355469 121.847656 32.042969 123.464844 32.042969 L 147.050781 32.042969 C 148.667969 32.042969 149.980469 33.355469 149.980469 34.96875 Z M 144.121094 37.894531 L 126.394531 37.894531 L 126.394531 138.148438 L 144.121094 138.148438 Z M 144.121094 37.894531 " fill-opacity="1" fill-rule="nonzero"/></svg>