<svg xmlns="http://www.w3.org/2000/svg" xmlns:xlink="http://www.w3.org/1999/xlink" width="235" zoomAndPan="magnify" viewBox="0 0 176.25 143.999998" height="192" preserveAspectRatio="xMidYMid meet" version="1.0"><defs><clipPath id="e1a43af0cb"><path d="M 113 77 L 175.503906 77 L 175.503906 120 L 113 120 Z M 113 77 " clip-rule="nonzero"/></clipPath><clipPath id="eb634ae01e"><path d="M 0 0.304688 L 154 0.304688 L 154 112 L 0 112 Z M 0 0.304688 " clip-rule="nonzero"/></clipPath><clipPath id="40e1459487"><path d="M 27 135 L 127 135 L 127 143.695312 L 27 143.695312 Z M 27 135 " clip-rule="nonzero"/></clipPath></defs><g clip-path="url(#e1a43af0cb)"><path fill="#211d1d" d="M 175.363281 119.628906 L 113.9375 119.628906 L 113.9375 77.6875 L 175.363281 77.6875 Z M 147.722656 102.417969 C 150.238281 101.253906 151.984375 98.714844 151.984375 95.761719 C 151.984375 91.71875 148.703125 88.425781 144.644531 88.425781 C 140.597656 88.425781 137.316406 91.71875 137.316406 95.761719 C 137.316406 98.714844 139.0625 101.253906 141.578125 102.417969 L 141.578125 108.886719 L 147.722656 108.886719 L 147.722656 102.417969 " fill-opacity="1" fill-rule="nonzero"/></g><path fill="#211d1d" d="M 169.046875 62.308594 L 169.046875 76.410156 L 159.949219 76.410156 L 159.949219 62.308594 C 159.949219 53.867188 153.089844 47.011719 144.644531 47.011719 C 136.210938 47.011719 129.351562 53.867188 129.351562 62.308594 L 129.351562 76.410156 L 120.253906 76.410156 L 120.253906 62.308594 C 120.253906 48.855469 131.199219 37.917969 144.644531 37.917969 C 158.101562 37.917969 169.046875 48.855469 169.046875 62.308594 " fill-opacity="1" fill-rule="nonzero"/><path fill="#211d1d" d="M 76.308594 87.367188 L 22.085938 87.367188 L 22.085938 70.273438 C 22.085938 60.363281 27.890625 51.816406 36.296875 47.832031 C 39.894531 50.523438 44.359375 52.125 49.199219 52.125 C 54.035156 52.125 58.488281 50.523438 62.085938 47.832031 C 70.492188 51.808594 76.308594 60.363281 76.308594 70.273438 L 76.308594 87.367188 " fill-opacity="1" fill-rule="nonzero"/><g clip-path="url(#eb634ae01e)"><path fill="#211d1d" d="M 109.667969 111.519531 L 0.136719 111.519531 L 0.136719 0.308594 L 153.554688 0.308594 L 153.554688 32.136719 L 144.644531 32.136719 L 144.644531 7.523438 L 9.050781 7.523438 L 9.050781 102.222656 L 109.667969 102.222656 L 109.667969 111.519531 " fill-opacity="1" fill-rule="nonzero"/></g><path fill="#211d1d" d="M 113.9375 37.304688 L 113.9375 40.925781 L 81.925781 40.925781 L 81.925781 37.304688 L 113.9375 37.304688 " fill-opacity="1" fill-rule="nonzero"/><path fill="#211d1d" d="M 52.71875 114.191406 L 100.972656 114.191406 L 100.972656 132.476562 L 52.71875 132.476562 L 52.71875 114.191406 " fill-opacity="1" fill-rule="nonzero"/><path fill="#211d1d" d="M 126.027344 21.761719 L 126.027344 25.382812 L 81.925781 25.382812 L 81.925781 21.761719 L 126.027344 21.761719 " fill-opacity="1" fill-rule="nonzero"/><path fill="#211d1d" d="M 81.925781 58.0625 L 81.925781 54.441406 L 100.972656 54.441406 L 100.972656 58.0625 L 81.925781 58.0625 " fill-opacity="1" fill-rule="nonzero"/><g clip-path="url(#40e1459487)"><path fill="#211d1d" d="M 126.027344 135.828125 L 126.027344 143.691406 L 27.664062 143.691406 L 27.664062 135.828125 L 126.027344 135.828125 " fill-opacity="1" fill-rule="nonzero"/></g><path fill="#211d1d" d="M 81.925781 87.519531 L 81.925781 83.898438 L 100.972656 83.898438 L 100.972656 87.519531 L 81.925781 87.519531 " fill-opacity="1" fill-rule="nonzero"/><path fill="#211d1d" d="M 49.199219 47.996094 C 42.113281 47.996094 36.378906 42.265625 36.378906 35.1875 C 36.378906 28.117188 42.113281 22.378906 49.199219 22.378906 C 56.269531 22.378906 62.015625 28.117188 62.015625 35.1875 C 62.015625 42.265625 56.269531 47.996094 49.199219 47.996094 " fill-opacity="1" fill-rule="nonzero"/><path fill="#211d1d" d="M 81.925781 70.195312 L 100.972656 70.195312 L 100.972656 73.816406 L 81.925781 73.816406 L 81.925781 70.195312 " fill-opacity="1" fill-rule="nonzero"/></svg>