<svg xmlns="http://www.w3.org/2000/svg" xmlns:xlink="http://www.w3.org/1999/xlink" width="96" zoomAndPan="magnify" viewBox="0 0 72 72" height="96" preserveAspectRatio="xMidYMid meet" version="1.0"><defs><clipPath id="a9967cd864"><path d="M 0 14 L 47.453125 14 L 47.453125 66.054688 L 0 66.054688 Z M 0 14 " clip-rule="nonzero"/></clipPath></defs><g clip-path="url(#a9967cd864)"><path fill="#ffffff" d="M 21.296875 51.734375 C 16.445312 46.890625 14.476562 40.140625 15.460938 33.773438 L 22.738281 36.203125 L 17.355469 14.296875 L 0 28.699219 L 7.582031 31.199219 C 5.683594 40.449219 8.335938 50.453125 15.460938 57.570312 C 24.027344 66.136719 36.605469 68.183594 47.066406 63.863281 L 45.097656 55.757812 C 37.367188 59.546875 27.742188 58.179688 21.296875 51.734375 " fill-opacity="1" fill-rule="nonzero"/></g><path fill="#ffffff" d="M 64.417969 42.871094 C 66.316406 33.628906 63.664062 23.625 56.539062 16.496094 C 47.980469 7.929688 35.394531 5.886719 24.933594 10.207031 L 26.902344 18.3125 C 34.636719 14.527344 44.257812 15.890625 50.703125 22.332031 C 55.554688 27.183594 57.523438 33.929688 56.539062 40.292969 L 49.261719 37.871094 L 54.644531 59.769531 L 72 45.371094 L 64.417969 42.871094 " fill-opacity="1" fill-rule="nonzero"/></svg>