<svg xmlns="http://www.w3.org/2000/svg" xmlns:xlink="http://www.w3.org/1999/xlink" width="96" zoomAndPan="magnify" viewBox="0 0 72 72" height="96" preserveAspectRatio="xMidYMid meet" version="1.0"><path fill="#ffffff" d="M 35.914062 0.0273438 C 25.460938 0.0273438 16.019531 4.46875 9.441406 11.605469 L 4.382812 8.402344 C 3.992188 8.179688 3.597656 8.066406 3.203125 8.066406 C 2.078125 8.066406 1.011719 8.964844 0.957031 10.203125 L 0.0546875 30.378906 C 0 31.726562 1.125 32.738281 2.304688 32.738281 C 2.640625 32.738281 2.980469 32.683594 3.371094 32.460938 L 21.359375 23.074219 C 22.875 22.285156 22.988281 20.09375 21.527344 19.195312 L 17.253906 16.496094 C 22.089844 11.886719 28.664062 9.019531 35.914062 9.019531 C 50.867188 9.019531 63.007812 21.105469 63.007812 36 C 63.007812 50.894531 50.867188 62.980469 35.972656 62.980469 C 21.863281 62.980469 10.285156 52.1875 9.050781 38.472656 L 0.503906 42.855469 C 3.710938 59.4375 18.324219 71.972656 35.914062 71.972656 C 55.8125 71.972656 72 55.839844 72 36 C 72 16.160156 55.867188 0.0273438 35.914062 0.0273438 Z M 35.914062 0.0273438 " fill-opacity="1" fill-rule="nonzero"/></svg>