<svg xmlns="http://www.w3.org/2000/svg" xmlns:xlink="http://www.w3.org/1999/xlink" width="247" zoomAndPan="magnify" viewBox="0 0 185.04 143.999998" height="192" preserveAspectRatio="xMidYMid meet" version="1.0"><defs><clipPath id="756627aa9a"><path d="M 0 1 L 184.050781 1 L 184.050781 143.628906 L 0 143.628906 Z M 0 1 " clip-rule="nonzero"/></clipPath></defs><g clip-path="url(#756627aa9a)"><path fill="#000000" d="M 55.605469 96.527344 C 58.503906 92.695312 60.222656 87.925781 60.222656 82.765625 C 60.222656 70.148438 49.9375 59.882812 37.296875 59.882812 C 24.65625 59.882812 14.371094 70.152344 14.371094 82.765625 C 14.371094 87.925781 16.089844 92.695312 18.988281 96.527344 C 14.226562 98.511719 9.96875 101.6875 6.71875 105.757812 C 2.410156 111.148438 0.0390625 117.898438 0.0390625 124.757812 L 0.0390625 136.882812 C 0.0390625 140.601562 3.070312 143.625 6.792969 143.625 L 67.804688 143.625 C 71.527344 143.625 74.558594 140.601562 74.558594 136.882812 L 74.558594 124.757812 C 74.558594 117.898438 72.1875 111.148438 67.878906 105.761719 C 64.625 101.6875 60.371094 98.511719 55.605469 96.527344 Z M 37.296875 65.625 C 46.765625 65.625 54.472656 73.3125 54.472656 82.769531 C 54.472656 92.230469 46.769531 99.921875 37.296875 99.921875 C 27.824219 99.921875 20.125 92.226562 20.125 82.769531 C 20.125 73.3125 27.828125 65.625 37.296875 65.625 Z M 68.800781 136.882812 C 68.800781 137.425781 68.34375 137.882812 67.800781 137.882812 L 56.636719 137.882812 L 56.636719 130.105469 C 56.636719 128.515625 55.347656 127.234375 53.761719 127.234375 C 52.175781 127.234375 50.886719 128.519531 50.886719 130.105469 L 50.886719 137.882812 L 23.714844 137.882812 L 23.714844 130.105469 C 23.714844 128.515625 22.425781 127.234375 20.839844 127.234375 C 19.253906 127.234375 17.964844 128.519531 17.964844 130.105469 L 17.964844 137.882812 L 6.792969 137.882812 C 6.25 137.882812 5.792969 137.425781 5.792969 136.882812 L 5.792969 124.757812 C 5.792969 113.753906 12.992188 104.179688 23.464844 101.011719 C 27.308594 103.925781 32.105469 105.660156 37.296875 105.660156 C 42.488281 105.660156 47.28125 103.925781 51.132812 101.011719 C 61.601562 104.179688 68.804688 113.753906 68.804688 124.757812 L 68.804688 136.882812 Z M 177.574219 105.761719 C 174.324219 101.691406 170.066406 98.515625 165.304688 96.53125 C 168.203125 92.699219 169.921875 87.929688 169.921875 82.769531 C 169.921875 70.152344 159.636719 59.886719 146.996094 59.886719 C 134.359375 59.886719 124.070312 70.152344 124.070312 82.769531 C 124.070312 87.929688 125.789062 92.699219 128.6875 96.53125 C 123.925781 98.515625 119.667969 101.691406 116.417969 105.761719 C 112.113281 111.148438 109.742188 117.898438 109.742188 124.757812 L 109.742188 136.882812 C 109.742188 140.601562 112.769531 143.625 116.492188 143.625 L 177.503906 143.625 C 181.226562 143.625 184.257812 140.601562 184.257812 136.882812 L 184.257812 124.757812 C 184.253906 117.898438 181.882812 111.148438 177.574219 105.761719 Z M 146.996094 65.625 C 156.464844 65.625 164.171875 73.3125 164.171875 82.769531 C 164.171875 92.230469 156.46875 99.921875 146.996094 99.921875 C 137.523438 99.921875 129.824219 92.226562 129.824219 82.769531 C 129.820312 73.3125 137.527344 65.625 146.996094 65.625 Z M 178.5 136.882812 C 178.5 137.425781 178.042969 137.882812 177.5 137.882812 L 166.332031 137.882812 L 166.332031 130.105469 C 166.332031 128.515625 165.042969 127.234375 163.457031 127.234375 C 161.871094 127.234375 160.582031 128.519531 160.582031 130.105469 L 160.582031 137.882812 L 133.414062 137.882812 L 133.414062 130.105469 C 133.414062 128.515625 132.125 127.234375 130.539062 127.234375 C 128.953125 127.234375 127.664062 128.519531 127.664062 130.105469 L 127.664062 137.882812 L 116.496094 137.882812 C 115.953125 137.882812 115.496094 137.425781 115.496094 136.882812 L 115.496094 124.757812 C 115.496094 113.753906 122.695312 104.179688 133.167969 101.011719 C 137.011719 103.925781 141.808594 105.660156 147 105.660156 C 152.191406 105.660156 156.984375 103.925781 160.835938 101.011719 C 171.304688 104.179688 178.507812 113.753906 178.507812 124.757812 L 178.507812 136.882812 Z M 63.230469 29.933594 C 62.109375 28.816406 62.109375 26.996094 63.230469 25.878906 C 64.351562 24.757812 66.171875 24.757812 67.296875 25.878906 L 74.359375 32.925781 L 87.542969 19.769531 C 88.664062 18.648438 90.484375 18.648438 91.605469 19.769531 C 92.730469 20.890625 92.730469 22.707031 91.605469 23.828125 L 76.390625 39.015625 C 75.832031 39.574219 75.09375 39.855469 74.359375 39.855469 C 73.625 39.855469 72.886719 39.574219 72.324219 39.015625 Z M 109.757812 99.523438 C 109.757812 101.109375 108.46875 102.394531 106.882812 102.394531 L 84.359375 102.394531 L 88.425781 106.453125 C 89.550781 107.570312 89.554688 109.390625 88.429688 110.507812 C 87.867188 111.070312 87.132812 111.351562 86.394531 111.351562 C 85.660156 111.351562 84.921875 111.070312 84.359375 110.507812 L 75.378906 101.550781 C 74.835938 101.011719 74.535156 100.28125 74.535156 99.519531 C 74.535156 98.757812 74.835938 98.03125 75.378906 97.492188 L 84.359375 88.523438 C 85.484375 87.402344 87.304688 87.402344 88.425781 88.523438 C 89.550781 89.644531 89.550781 91.460938 88.425781 92.582031 L 84.351562 96.652344 L 106.878906 96.652344 C 108.472656 96.652344 109.757812 97.9375 109.757812 99.523438 Z M 57.011719 48.546875 L 55.613281 58.238281 C 55.332031 60.167969 56.246094 62.046875 57.957031 63.042969 C 58.699219 63.46875 59.519531 63.679688 60.339844 63.679688 C 61.386719 63.679688 62.421875 63.335938 63.285156 62.65625 L 71 56.609375 C 75.492188 57.660156 80.207031 57.585938 84.671875 56.390625 C 87.351562 55.675781 89.867188 54.585938 92.160156 53.175781 C 94.476562 54.601562 96.976562 55.683594 99.625 56.390625 C 104.082031 57.585938 108.789062 57.65625 113.292969 56.609375 L 121.003906 62.65625 C 121.871094 63.335938 122.902344 63.679688 123.949219 63.679688 C 124.769531 63.679688 125.597656 63.46875 126.351562 63.03125 C 128.046875 62.046875 128.957031 60.167969 128.679688 58.238281 L 127.28125 48.542969 C 130.4375 45.1875 132.726562 41.074219 133.925781 36.617188 C 137.929688 21.738281 129.050781 6.378906 114.121094 2.375 C 106.601562 0.371094 98.703125 1.558594 92.144531 5.609375 C 91.90625 5.464844 91.667969 5.3125 91.421875 5.171875 C 84.949219 1.4375 77.398438 0.445312 70.167969 2.378906 C 55.257812 6.375 46.375 21.734375 50.367188 36.617188 C 51.566406 41.078125 53.859375 45.195312 57.011719 48.546875 Z M 112.632812 7.925781 C 124.492188 11.105469 131.550781 23.3125 128.367188 35.136719 C 127.382812 38.796875 125.46875 42.171875 122.832031 44.878906 C 121.792969 45.925781 121.3125 47.378906 121.515625 48.890625 L 122.636719 56.636719 L 116.476562 51.800781 C 115.296875 50.875 113.785156 50.554688 112.351562 50.929688 C 108.671875 51.855469 104.785156 51.828125 101.117188 50.847656 C 99.710938 50.46875 98.355469 49.960938 97.066406 49.324219 C 98.84375 47.574219 100.398438 45.582031 101.679688 43.367188 C 105.421875 36.898438 106.417969 29.363281 104.476562 22.152344 C 103.164062 17.253906 100.601562 12.90625 97.070312 9.445312 C 101.863281 7.085938 107.371094 6.523438 112.632812 7.925781 Z M 71.65625 7.925781 C 77.398438 6.394531 83.402344 7.179688 88.550781 10.148438 C 89.179688 10.511719 89.785156 10.902344 90.375 11.316406 C 90.417969 11.351562 90.460938 11.382812 90.507812 11.414062 C 94.628906 14.394531 97.582031 18.660156 98.917969 23.640625 C 98.917969 23.640625 98.917969 23.640625 98.917969 23.644531 C 100.457031 29.371094 99.671875 35.359375 96.699219 40.496094 C 95.109375 43.246094 92.992188 45.566406 90.496094 47.378906 C 90.460938 47.402344 90.421875 47.433594 90.382812 47.457031 C 88.234375 48.992188 85.8125 50.148438 83.183594 50.847656 C 79.515625 51.828125 75.625 51.855469 71.960938 50.933594 C 70.507812 50.554688 69 50.875 67.820312 51.800781 L 61.660156 56.636719 L 62.78125 48.867188 C 62.980469 47.382812 62.503906 45.929688 61.464844 44.882812 C 58.828125 42.171875 56.914062 38.800781 55.925781 35.136719 C 52.75 23.308594 59.808594 11.105469 71.65625 7.925781 Z M 95.867188 81.449219 L 99.945312 77.378906 L 77.414062 77.378906 C 75.824219 77.378906 74.539062 76.09375 74.539062 74.511719 C 74.539062 72.925781 75.828125 71.640625 77.414062 71.640625 L 99.941406 71.640625 L 95.871094 67.585938 C 94.75 66.464844 94.746094 64.648438 95.867188 63.527344 C 96.988281 62.40625 98.808594 62.402344 99.933594 63.523438 L 108.917969 72.480469 C 109.457031 73.019531 109.757812 73.75 109.757812 74.511719 C 109.757812 75.273438 109.457031 76 108.917969 76.539062 L 99.933594 85.507812 C 99.371094 86.066406 98.632812 86.347656 97.898438 86.347656 C 97.164062 86.347656 96.429688 86.066406 95.867188 85.507812 C 94.742188 84.390625 94.742188 82.574219 95.867188 81.449219 Z M 95.867188 81.449219 " fill-opacity="1" fill-rule="nonzero"/></g></svg>