<svg xmlns="http://www.w3.org/2000/svg" xmlns:xlink="http://www.w3.org/1999/xlink" width="150" zoomAndPan="magnify" viewBox="0 0 112.079994 143.999998" height="192" preserveAspectRatio="xMidYMid meet" version="1.0"><defs><clipPath id="559e6f183d"><path d="M 0 0.585938 L 111.085938 0.585938 L 111.085938 143.414062 L 0 143.414062 Z M 0 0.585938 " clip-rule="nonzero"/></clipPath></defs><path fill="#000000" d="M 65.808594 54.863281 L 62.949219 54.863281 L 62.949219 52.003906 C 62.949219 44.121094 56.539062 37.722656 48.644531 37.722656 C 40.746094 37.722656 34.335938 44.121094 34.335938 52.003906 L 34.335938 54.863281 L 31.476562 54.863281 C 26.753906 54.863281 22.890625 58.71875 22.890625 63.429688 L 22.890625 91.996094 C 22.890625 96.707031 26.753906 100.5625 31.476562 100.5625 L 65.808594 100.5625 C 70.53125 100.5625 74.394531 96.707031 74.394531 91.996094 L 74.394531 63.429688 C 74.394531 58.71875 70.53125 54.863281 65.808594 54.863281 Z M 40.058594 52.003906 C 40.058594 47.292969 43.921875 43.4375 48.644531 43.4375 C 53.363281 43.4375 57.226562 47.292969 57.226562 52.003906 L 57.226562 54.863281 L 40.058594 54.863281 Z M 68.671875 91.996094 C 68.671875 93.566406 67.382812 94.851562 65.808594 94.851562 L 31.476562 94.851562 C 29.902344 94.851562 28.613281 93.566406 28.613281 91.996094 L 28.613281 63.429688 C 28.613281 61.859375 29.902344 60.574219 31.476562 60.574219 L 65.808594 60.574219 C 67.382812 60.574219 68.671875 61.859375 68.671875 63.429688 Z M 68.671875 91.996094 " fill-opacity="1" fill-rule="nonzero"/><path fill="#000000" d="M 51.503906 72.527344 L 51.503906 69.144531 C 51.503906 67.566406 50.222656 66.289062 48.644531 66.289062 C 47.0625 66.289062 45.78125 67.566406 45.78125 69.144531 L 45.78125 72.527344 C 42.457031 73.710938 40.058594 76.851562 40.058594 80.570312 C 40.058594 85.292969 43.910156 89.136719 48.644531 89.136719 C 53.375 89.136719 57.226562 85.292969 57.226562 80.570312 C 57.226562 76.851562 54.828125 73.710938 51.503906 72.527344 Z M 48.644531 83.425781 C 47.066406 83.425781 45.78125 82.144531 45.78125 80.570312 C 45.78125 78.992188 47.066406 77.710938 48.644531 77.710938 C 50.21875 77.710938 51.503906 78.992188 51.503906 80.570312 C 51.503906 82.144531 50.21875 83.425781 48.644531 83.425781 Z M 48.644531 83.425781 " fill-opacity="1" fill-rule="nonzero"/><path fill="#000000" d="M 95.261719 112.828125 L 85.839844 122.234375 L 82.140625 118.539062 C 81.019531 117.425781 79.210938 117.425781 78.09375 118.539062 C 76.976562 119.65625 76.976562 121.464844 78.09375 122.578125 L 83.816406 128.292969 C 84.375 128.851562 85.105469 129.128906 85.839844 129.128906 C 86.570312 129.128906 87.300781 128.851562 87.859375 128.292969 L 99.304688 116.867188 C 100.421875 115.75 100.421875 113.941406 99.304688 112.828125 C 98.1875 111.710938 96.378906 111.710938 95.261719 112.828125 Z M 95.261719 112.828125 " fill-opacity="1" fill-rule="nonzero"/><g clip-path="url(#559e6f183d)"><path fill="#000000" d="M 89.058594 97.726562 C 94.441406 85.253906 97.28125 71.660156 97.28125 58.089844 L 97.28125 52.003906 C 97.28125 50.425781 96.003906 49.148438 94.421875 49.148438 C 92.84375 49.148438 91.5625 50.425781 91.5625 52.003906 L 91.5625 58.089844 C 91.5625 72.039062 88.367188 86.015625 82.363281 98.617188 C 72.820312 101.371094 65.808594 110.15625 65.808594 120.558594 C 65.808594 121.269531 65.851562 121.972656 65.917969 122.667969 C 60.757812 128.171875 54.972656 133.054688 48.644531 137.167969 C 21.734375 119.671875 5.722656 90.246094 5.722656 58.089844 L 5.722656 34.242188 L 48.644531 23.53125 L 65.808594 27.816406 L 65.808594 32.011719 C 65.808594 38.3125 70.945312 43.4375 77.253906 43.4375 C 78.835938 43.4375 80.117188 42.15625 80.117188 40.578125 C 80.117188 39 78.835938 37.722656 77.253906 37.722656 C 74.097656 37.722656 71.53125 35.160156 71.53125 32.011719 L 71.53125 29.242188 L 91.5625 34.242188 L 91.5625 40.578125 C 91.5625 42.15625 92.84375 43.4375 94.421875 43.4375 C 96.003906 43.4375 97.28125 42.15625 97.28125 40.578125 L 97.28125 32.011719 C 97.28125 30.699219 96.390625 29.558594 95.117188 29.238281 L 88.699219 27.636719 L 88.699219 3.445312 C 88.699219 1.867188 87.417969 0.589844 85.839844 0.589844 C 84.257812 0.589844 82.976562 1.867188 82.976562 3.445312 L 82.976562 26.210938 L 71.53125 23.355469 L 71.53125 16.054688 C 71.53125 16.054688 72.371094 16.890625 72.371094 16.890625 C 73.480469 17.996094 75.308594 17.996094 76.417969 16.890625 C 77.535156 15.773438 77.535156 13.96875 76.417969 12.851562 L 70.695312 7.140625 C 69.578125 6.023438 67.765625 6.023438 66.648438 7.140625 L 60.925781 12.851562 C 59.808594 13.96875 59.808594 15.773438 60.925781 16.890625 C 62.042969 18.007812 63.855469 18.007812 64.972656 16.890625 L 65.808594 16.054688 L 65.808594 21.925781 L 49.335938 17.8125 C 48.882812 17.695312 48.402344 17.695312 47.949219 17.8125 L 2.167969 29.238281 C 0.894531 29.558594 0.00390625 30.699219 0.00390625 32.011719 L 0.00390625 58.089844 C 0.00390625 92.828125 17.621094 124.5625 47.125 142.976562 C 47.589844 143.265625 48.117188 143.410156 48.644531 143.410156 C 49.167969 143.410156 49.695312 143.265625 50.15625 142.976562 C 56.457031 139.054688 62.257812 134.410156 67.519531 129.199219 C 70.941406 137.527344 79.140625 143.410156 88.699219 143.410156 C 92.582031 143.410156 96.25 142.488281 99.597656 140.664062 C 100.984375 139.90625 101.496094 138.171875 100.738281 136.789062 C 99.984375 135.402344 98.25 134.890625 96.855469 135.648438 C 94.359375 137.007812 91.613281 137.699219 88.699219 137.699219 C 79.234375 137.699219 71.53125 130.011719 71.53125 120.558594 C 71.53125 111.109375 79.234375 103.421875 88.699219 103.421875 C 98.167969 103.421875 105.867188 111.109375 105.867188 120.558594 C 105.867188 123.46875 105.175781 126.207031 103.8125 128.703125 C 103.585938 129.121094 103.464844 129.621094 103.464844 130.097656 C 103.460938 133.039062 107.597656 133.953125 108.890625 131.339844 C 110.679688 128.023438 111.589844 124.398438 111.589844 120.558594 C 111.589844 108.082031 101.511719 97.921875 89.058594 97.726562 Z M 89.058594 97.726562 " fill-opacity="1" fill-rule="nonzero"/></g></svg>